<mxfile host="65bd71144e">
    <diagram id="pIjv7jn8YukAzGKt-qBD" name="Page-1">
        <mxGraphModel dx="3050" dy="1558" grid="1" gridSize="10" guides="1" tooltips="1" connect="1" arrows="1" fold="1" page="1" pageScale="1" pageWidth="850" pageHeight="1100" math="0" shadow="0">
            <root>
                <mxCell id="0"/>
                <mxCell id="1" parent="0"/>
                <mxCell id="2" value="" style="rounded=0;whiteSpace=wrap;html=1;" vertex="1" parent="1">
                    <mxGeometry x="70" y="170" width="60" height="50" as="geometry"/>
                </mxCell>
                <mxCell id="3" value="1" style="rounded=0;whiteSpace=wrap;html=1;" vertex="1" parent="1">
                    <mxGeometry x="70" y="220" width="60" height="30" as="geometry"/>
                </mxCell>
                <mxCell id="4" value="" style="rounded=0;whiteSpace=wrap;html=1;" vertex="1" parent="1">
                    <mxGeometry x="130" y="170" width="60" height="50" as="geometry"/>
                </mxCell>
                <mxCell id="5" value="8" style="rounded=0;whiteSpace=wrap;html=1;" vertex="1" parent="1">
                    <mxGeometry x="130" y="220" width="60" height="30" as="geometry"/>
                </mxCell>
                <mxCell id="6" value="" style="rounded=0;whiteSpace=wrap;html=1;" vertex="1" parent="1">
                    <mxGeometry x="190" y="170" width="60" height="50" as="geometry"/>
                </mxCell>
                <mxCell id="7" value="7" style="rounded=0;whiteSpace=wrap;html=1;" vertex="1" parent="1">
                    <mxGeometry x="190" y="220" width="60" height="30" as="geometry"/>
                </mxCell>
                <mxCell id="8" value="" style="rounded=0;whiteSpace=wrap;html=1;" vertex="1" parent="1">
                    <mxGeometry x="250" y="170" width="60" height="50" as="geometry"/>
                </mxCell>
                <mxCell id="9" value="4" style="rounded=0;whiteSpace=wrap;html=1;" vertex="1" parent="1">
                    <mxGeometry x="250" y="220" width="60" height="30" as="geometry"/>
                </mxCell>
                <mxCell id="10" value="" style="rounded=0;whiteSpace=wrap;html=1;" vertex="1" parent="1">
                    <mxGeometry x="310" y="170" width="60" height="50" as="geometry"/>
                </mxCell>
                <mxCell id="11" value="5" style="rounded=0;whiteSpace=wrap;html=1;" vertex="1" parent="1">
                    <mxGeometry x="310" y="220" width="60" height="30" as="geometry"/>
                </mxCell>
                <mxCell id="12" value="" style="rounded=0;whiteSpace=wrap;html=1;" vertex="1" parent="1">
                    <mxGeometry x="370" y="170" width="60" height="50" as="geometry"/>
                </mxCell>
                <mxCell id="13" value="6" style="rounded=0;whiteSpace=wrap;html=1;" vertex="1" parent="1">
                    <mxGeometry x="370" y="220" width="60" height="30" as="geometry"/>
                </mxCell>
                <mxCell id="14" value="" style="rounded=0;whiteSpace=wrap;html=1;" vertex="1" parent="1">
                    <mxGeometry x="430" y="170" width="60" height="50" as="geometry"/>
                </mxCell>
                <mxCell id="15" value="0" style="rounded=0;whiteSpace=wrap;html=1;" vertex="1" parent="1">
                    <mxGeometry x="430" y="220" width="60" height="30" as="geometry"/>
                </mxCell>
                <mxCell id="16" value="" style="rounded=0;whiteSpace=wrap;html=1;" vertex="1" parent="1">
                    <mxGeometry x="490" y="170" width="60" height="50" as="geometry"/>
                </mxCell>
                <mxCell id="17" value="3" style="rounded=0;whiteSpace=wrap;html=1;" vertex="1" parent="1">
                    <mxGeometry x="490" y="220" width="60" height="30" as="geometry"/>
                </mxCell>
                <mxCell id="18" value="" style="rounded=0;whiteSpace=wrap;html=1;" vertex="1" parent="1">
                    <mxGeometry x="550" y="170" width="60" height="50" as="geometry"/>
                </mxCell>
                <mxCell id="19" value="9" style="rounded=0;whiteSpace=wrap;html=1;" vertex="1" parent="1">
                    <mxGeometry x="550" y="220" width="60" height="30" as="geometry"/>
                </mxCell>
                <mxCell id="20" value="" style="rounded=0;whiteSpace=wrap;html=1;" vertex="1" parent="1">
                    <mxGeometry x="610" y="170" width="60" height="50" as="geometry"/>
                </mxCell>
                <mxCell id="21" value="10" style="rounded=0;whiteSpace=wrap;html=1;" vertex="1" parent="1">
                    <mxGeometry x="610" y="220" width="60" height="30" as="geometry"/>
                </mxCell>
                <mxCell id="22" value="" style="rounded=0;whiteSpace=wrap;html=1;" vertex="1" parent="1">
                    <mxGeometry x="670" y="170" width="60" height="50" as="geometry"/>
                </mxCell>
                <mxCell id="23" value="..." style="rounded=0;whiteSpace=wrap;html=1;" vertex="1" parent="1">
                    <mxGeometry x="670" y="220" width="60" height="30" as="geometry"/>
                </mxCell>
                <mxCell id="24" value="" style="rounded=0;whiteSpace=wrap;html=1;" vertex="1" parent="1">
                    <mxGeometry x="730" y="170" width="60" height="50" as="geometry"/>
                </mxCell>
                <mxCell id="25" value="2" style="rounded=0;whiteSpace=wrap;html=1;" vertex="1" parent="1">
                    <mxGeometry x="730" y="220" width="60" height="30" as="geometry"/>
                </mxCell>
                <mxCell id="26" value="data" style="text;html=1;align=center;verticalAlign=middle;resizable=0;points=[];autosize=1;strokeColor=none;fillColor=none;" vertex="1" parent="1">
                    <mxGeometry x="20" y="180" width="50" height="30" as="geometry"/>
                </mxCell>
                <mxCell id="27" value="cur" style="text;html=1;align=center;verticalAlign=middle;resizable=0;points=[];autosize=1;strokeColor=none;fillColor=none;" vertex="1" parent="1">
                    <mxGeometry x="25" y="220" width="40" height="30" as="geometry"/>
                </mxCell>
                <mxCell id="28" value="" style="ellipse;whiteSpace=wrap;html=1;fillColor=#CCCCCC;" vertex="1" parent="1">
                    <mxGeometry x="75" y="177.5" width="50" height="35" as="geometry"/>
                </mxCell>
                <mxCell id="29" value="" style="shape=parallelogram;perimeter=parallelogramPerimeter;whiteSpace=wrap;html=1;fixedSize=1;fillColor=#FF3333;" vertex="1" parent="1">
                    <mxGeometry x="735" y="182.5" width="50" height="30" as="geometry"/>
                </mxCell>
                <mxCell id="30" value="下标" style="text;html=1;align=center;verticalAlign=middle;resizable=0;points=[];autosize=1;strokeColor=none;fillColor=none;" vertex="1" parent="1">
                    <mxGeometry x="15" y="140" width="50" height="30" as="geometry"/>
                </mxCell>
                <mxCell id="31" value="0" style="text;html=1;align=center;verticalAlign=middle;resizable=0;points=[];autosize=1;strokeColor=none;fillColor=none;" vertex="1" parent="1">
                    <mxGeometry x="85" y="140" width="30" height="30" as="geometry"/>
                </mxCell>
                <mxCell id="32" value="1" style="text;html=1;align=center;verticalAlign=middle;resizable=0;points=[];autosize=1;strokeColor=none;fillColor=none;" vertex="1" parent="1">
                    <mxGeometry x="145" y="140" width="30" height="30" as="geometry"/>
                </mxCell>
                <mxCell id="33" value="2" style="text;html=1;align=center;verticalAlign=middle;resizable=0;points=[];autosize=1;strokeColor=none;fillColor=none;" vertex="1" parent="1">
                    <mxGeometry x="205" y="140" width="30" height="30" as="geometry"/>
                </mxCell>
                <mxCell id="34" value="3" style="text;html=1;align=center;verticalAlign=middle;resizable=0;points=[];autosize=1;strokeColor=none;fillColor=none;" vertex="1" parent="1">
                    <mxGeometry x="265" y="140" width="30" height="30" as="geometry"/>
                </mxCell>
                <mxCell id="35" value="4" style="text;html=1;align=center;verticalAlign=middle;resizable=0;points=[];autosize=1;strokeColor=none;fillColor=none;" vertex="1" parent="1">
                    <mxGeometry x="325" y="140" width="30" height="30" as="geometry"/>
                </mxCell>
                <mxCell id="36" value="5" style="text;html=1;align=center;verticalAlign=middle;resizable=0;points=[];autosize=1;strokeColor=none;fillColor=none;" vertex="1" parent="1">
                    <mxGeometry x="385" y="140" width="30" height="30" as="geometry"/>
                </mxCell>
                <mxCell id="37" value="6" style="text;html=1;align=center;verticalAlign=middle;resizable=0;points=[];autosize=1;strokeColor=none;fillColor=none;" vertex="1" parent="1">
                    <mxGeometry x="445" y="140" width="30" height="30" as="geometry"/>
                </mxCell>
                <mxCell id="38" value="7" style="text;html=1;align=center;verticalAlign=middle;resizable=0;points=[];autosize=1;strokeColor=none;fillColor=none;" vertex="1" parent="1">
                    <mxGeometry x="500" y="140" width="30" height="30" as="geometry"/>
                </mxCell>
                <mxCell id="39" value="8" style="text;html=1;align=center;verticalAlign=middle;resizable=0;points=[];autosize=1;strokeColor=none;fillColor=none;" vertex="1" parent="1">
                    <mxGeometry x="565" y="140" width="30" height="30" as="geometry"/>
                </mxCell>
                <mxCell id="40" value="9" style="text;html=1;align=center;verticalAlign=middle;resizable=0;points=[];autosize=1;strokeColor=none;fillColor=none;" vertex="1" parent="1">
                    <mxGeometry x="625" y="140" width="30" height="30" as="geometry"/>
                </mxCell>
                <mxCell id="41" value="……" style="text;html=1;align=center;verticalAlign=middle;resizable=0;points=[];autosize=1;strokeColor=none;fillColor=none;" vertex="1" parent="1">
                    <mxGeometry x="675" y="140" width="50" height="30" as="geometry"/>
                </mxCell>
                <mxCell id="42" value="999" style="text;html=1;align=center;verticalAlign=middle;resizable=0;points=[];autosize=1;strokeColor=none;fillColor=none;" vertex="1" parent="1">
                    <mxGeometry x="740" y="140" width="40" height="30" as="geometry"/>
                </mxCell>
                <mxCell id="45" value="备用&lt;span style=&quot;background-color: transparent;&quot;&gt;链表（空闲空间）&lt;/span&gt;&lt;div&gt;&lt;span style=&quot;background-color: transparent;&quot;&gt;第一个节点的下标改为1&lt;/span&gt;&lt;/div&gt;" style="text;html=1;align=center;verticalAlign=middle;resizable=0;points=[];autosize=1;strokeColor=none;fillColor=none;" vertex="1" parent="1">
                    <mxGeometry x="50" y="290" width="150" height="40" as="geometry"/>
                </mxCell>
                <mxCell id="46" value="" style="endArrow=none;dashed=1;html=1;" edge="1" parent="1" source="45">
                    <mxGeometry width="50" height="50" relative="1" as="geometry">
                        <mxPoint x="65" y="280" as="sourcePoint"/>
                        <mxPoint x="115" y="230" as="targetPoint"/>
                    </mxGeometry>
                </mxCell>
                <mxCell id="48" value="b" style="ellipse;whiteSpace=wrap;html=1;aspect=fixed;fillColor=#66FFB3;" vertex="1" parent="1">
                    <mxGeometry x="200" y="175" width="40" height="40" as="geometry"/>
                </mxCell>
                <mxCell id="49" value="d" style="ellipse;whiteSpace=wrap;html=1;aspect=fixed;fillColor=#66FFB3;" vertex="1" parent="1">
                    <mxGeometry x="260" y="175" width="40" height="40" as="geometry"/>
                </mxCell>
                <mxCell id="50" value="e" style="ellipse;whiteSpace=wrap;html=1;aspect=fixed;fillColor=#66FFB3;" vertex="1" parent="1">
                    <mxGeometry x="320" y="175" width="40" height="40" as="geometry"/>
                </mxCell>
                <mxCell id="51" value="f" style="ellipse;whiteSpace=wrap;html=1;aspect=fixed;fillColor=#66FFB3;" vertex="1" parent="1">
                    <mxGeometry x="380" y="175" width="40" height="40" as="geometry"/>
                </mxCell>
                <mxCell id="54" value="g" style="ellipse;whiteSpace=wrap;html=1;aspect=fixed;fillColor=#66FFB3;" vertex="1" parent="1">
                    <mxGeometry x="440" y="175" width="40" height="40" as="geometry"/>
                </mxCell>
                <mxCell id="55" value="c" style="ellipse;whiteSpace=wrap;html=1;aspect=fixed;fillColor=#66FFB3;" vertex="1" parent="1">
                    <mxGeometry x="500" y="175" width="40" height="40" as="geometry"/>
                </mxCell>
                <mxCell id="56" value="cur改为指向备用链表&lt;div&gt;第二个节点的下标8&lt;/div&gt;" style="text;html=1;align=center;verticalAlign=middle;resizable=0;points=[];autosize=1;strokeColor=none;fillColor=none;" vertex="1" parent="1">
                    <mxGeometry x="200" y="295" width="140" height="40" as="geometry"/>
                </mxCell>
                <mxCell id="57" value="" style="endArrow=none;dashed=1;html=1;entryX=0.5;entryY=1;entryDx=0;entryDy=0;" edge="1" parent="1" target="5">
                    <mxGeometry width="50" height="50" relative="1" as="geometry">
                        <mxPoint x="245" y="310" as="sourcePoint"/>
                        <mxPoint x="295" y="260" as="targetPoint"/>
                    </mxGeometry>
                </mxCell>
            </root>
        </mxGraphModel>
    </diagram>
</mxfile>